  0
SECTION
  2
HEADER
  9
$ACADVER
  1
AC1012
  9
$DWGCODEPAGE
  3
gb2312
  9
$INSBASE
 10
0.0
 20
0.0
 30
0.0
  9
$EXTMIN
 10
1.000000000000000E+20
 20
1.000000000000000E+20
 30
1.000000000000000E+20
  9
$EXTMAX
 10
-1.000000000000000E+20
 20
-1.000000000000000E+20
 30
-1.000000000000000E+20
  9
$LIMMIN
 10
0.0
 20
0.0
  9
$LIMMAX
 10
420.0
 20
297.0
  9
$ORTHOMODE
 70
     0
  9
$REGENMODE
 70
     1
  9
$FILLMODE
 70
     1
  9
$QTEXTMODE
 70
     0
  9
$MIRRTEXT
 70
     1
  9
$DRAGMODE
 70
     2
  9
$LTSCALE
 40
1.0
  9
$OSMODE
 70
    37
  9
$ATTMODE
 70
     1
  9
$TEXTSIZE
 40
2.5
  9
$TRACEWID
 40
1.0
  9
$TEXTSTYLE
  7
STANDARD
  9
$CLAYER
  8
0
  9
$CELTYPE
  6
BYLAYER
  9
$CECOLOR
 62
   256
  9
$CELTSCALE
 40
1.0
  9
$DELOBJ
 70
     1
  9
$DISPSILH
 70
     0
  9
$DIMSCALE
 40
1.0
  9
$DIMASZ
 40
2.5
  9
$DIMEXO
 40
0.625
  9
$DIMDLI
 40
3.75
  9
$DIMRND
 40
0.0
  9
$DIMDLE
 40
0.0
  9
$DIMEXE
 40
1.25
  9
$DIMTP
 40
0.0
  9
$DIMTM
 40
0.0
  9
$DIMTXT
 40
2.5
  9
$DIMCEN
 40
2.5
  9
$DIMTSZ
 40
0.0
  9
$DIMTOL
 70
     0
  9
$DIMLIM
 70
     0
  9
$DIMTIH
 70
     0
  9
$DIMTOH
 70
     0
  9
$DIMSE1
 70
     0
  9
$DIMSE2
 70
     0
  9
$DIMTAD
 70
     1
  9
$DIMZIN
 70
     8
  9
$DIMBLK
  1

  9
$DIMASO
 70
     1
  9
$DIMSHO
 70
     1
  9
$DIMPOST
  1

  9
$DIMAPOST
  1

  9
$DIMALT
 70
     0
  9
$DIMALTD
 70
     3
  9
$DIMALTF
 40
0.03937007874016
  9
$DIMLFAC
 40
1.0
  9
$DIMTOFL
 70
     1
  9
$DIMTVP
 40
0.0
  9
$DIMTIX
 70
     0
  9
$DIMSOXD
 70
     0
  9
$DIMSAH
 70
     0
  9
$DIMBLK1
  1

  9
$DIMBLK2
  1

  9
$DIMSTYLE
  2
ISO-25
  9
$DIMCLRD
 70
     0
  9
$DIMCLRE
 70
     0
  9
$DIMCLRT
 70
     0
  9
$DIMTFAC
 40
1.0
  9
$DIMGAP
 40
0.625
  9
$DIMJUST
 70
     0
  9
$DIMSD1
 70
     0
  9
$DIMSD2
 70
     0
  9
$DIMTOLJ
 70
     0
  9
$DIMTZIN
 70
     8
  9
$DIMALTZ
 70
     0
  9
$DIMALTTZ
 70
     0
  9
$DIMFIT
 70
     3
  9
$DIMUPT
 70
     0
  9
$DIMUNIT
 70
     2
  9
$DIMDEC
 70
     2
  9
$DIMTDEC
 70
     2
  9
$DIMALTU
 70
     2
  9
$DIMALTTD
 70
     3
  9
$DIMTXSTY
  7
STANDARD
  9
$DIMAUNIT
 70
     0
  9
$LUNITS
 70
     2
  9
$LUPREC
 70
     4
  9
$SKETCHINC
 40
1.0
  9
$FILLETRAD
 40
10.0
  9
$AUNITS
 70
     0
  9
$AUPREC
 70
     0
  9
$MENU
  1
.
  9
$ELEVATION
 40
0.0
  9
$PELEVATION
 40
0.0
  9
$THICKNESS
 40
0.0
  9
$LIMCHECK
 70
     0
  9
$BLIPMODE
 70
     0
  9
$CHAMFERA
 40
10.0
  9
$CHAMFERB
 40
10.0
  9
$CHAMFERC
 40
20.0
  9
$CHAMFERD
 40
0.0
  9
$SKPOLY
 70
     0
  9
$TDCREATE
 40
2453935.933843252
  9
$TDUPDATE
 40
2453935.934398680
  9
$TDINDWG
 40
0.0005563542
  9
$TDUSRTIMER
 40
0.0005562384
  9
$USRTIMER
 70
     1
  9
$ANGBASE
 50
0.0
  9
$ANGDIR
 70
     0
  9
$PDMODE
 70
     0
  9
$PDSIZE
 40
0.0
  9
$PLINEWID
 40
0.0
  9
$COORDS
 70
     1
  9
$SPLFRAME
 70
     0
  9
$SPLINETYPE
 70
     6
  9
$SPLINESEGS
 70
     8
  9
$ATTDIA
 70
     0
  9
$ATTREQ
 70
     1
  9
$HANDLING
 70
 22529
  9
$HANDSEED
  5
4A
  9
$SURFTAB1
 70
     6
  9
$SURFTAB2
 70
     6
  9
$SURFTYPE
 70
     6
  9
$SURFU
 70
     6
  9
$SURFV
 70
     6
  9
$UCSNAME
  2

  9
$UCSORG
 10
0.0
 20
0.0
 30
0.0
  9
$UCSXDIR
 10
1.0
 20
0.0
 30
0.0
  9
$UCSYDIR
 10
0.0
 20
1.0
 30
0.0
  9
$PUCSNAME
  2

  9
$PUCSORG
 10
0.0
 20
0.0
 30
0.0
  9
$PUCSXDIR
 10
1.0
 20
0.0
 30
0.0
  9
$PUCSYDIR
 10
0.0
 20
1.0
 30
0.0
  9
$USERI1
 70
     0
  9
$USERI2
 70
     0
  9
$USERI3
 70
     0
  9
$USERI4
 70
     0
  9
$USERI5
 70
     0
  9
$USERR1
 40
0.0
  9
$USERR2
 40
0.0
  9
$USERR3
 40
0.0
  9
$USERR4
 40
0.0
  9
$USERR5
 40
0.0
  9
$WORLDVIEW
 70
     1
  9
$SHADEDGE
 70
     3
  9
$SHADEDIF
 70
    70
  9
$TILEMODE
 70
     1
  9
$MAXACTVP
 70
    64
  9
$PINSBASE
 10
0.0
 20
0.0
 30
0.0
  9
$PLIMCHECK
 70
     0
  9
$PEXTMIN
 10
1.000000000000000E+20
 20
1.000000000000000E+20
 30
1.000000000000000E+20
  9
$PEXTMAX
 10
-1.000000000000000E+20
 20
-1.000000000000000E+20
 30
-1.000000000000000E+20
  9
$PLIMMIN
 10
0.0
 20
0.0
  9
$PLIMMAX
 10
420.0
 20
297.0
  9
$UNITMODE
 70
     0
  9
$VISRETAIN
 70
     1
  9
$PLINEGEN
 70
     0
  9
$PSLTSCALE
 70
     1
  9
$TREEDEPTH
 70
  3020
  9
$PICKSTYLE
 70
     1
  9
$CMLSTYLE
  2
STANDARD
  9
$CMLJUST
 70
     0
  9
$CMLSCALE
 40
20.0
  9
$SAVEIMAGES
 70
     1
  0
ENDSEC
  0
SECTION
  2
CLASSES
  0
CLASS
  1
ACDBDICTIONARYWDFLT
  2
AcDbDictionaryWithDefault
  3
AutoCAD 2000
 90
    32768
280
     0
281
     0
  0
CLASS
  1
ACDBPLACEHOLDER
  2
AcDbPlaceHolder
  3
AutoCAD 2000
 90
    32768
280
     0
281
     0
  0
CLASS
  1
LAYOUT
  2
AcDbLayout
  3
AutoCAD 2000
 90
    32768
280
     0
281
     0
  0
CLASS
  1
DICTIONARYVAR
  2
AcDbDictionaryVar
  3
AutoCAD 2000
 90
    32768
280
     0
281
     0
  0
CLASS
  1
LONG_TRANSACTION
  2
AcDbLongTransaction
  3
AutoCAD 2000
 90
    32768
280
     0
281
     0
  0
CLASS
  1
LWPOLYLINE
  2
AcDbPolyline
  3
AutoCAD 2000
 90
    32768
280
     0
281
     1
  0
CLASS
  1
HATCH
  2
AcDbHatch
  3
AutoCAD 2000
 90
    32768
280
     0
281
     1
  0
CLASS
  1
XRECORD
  2
AcDbXrecord
  3
AutoCAD 2000
 90
    32768
280
     0
281
     0
  0
ENDSEC
  0
SECTION
  2
TABLES
  0
TABLE
  2
VPORT
  5
8
330
0
100
AcDbSymbolTable
 70
     2
  0
VPORT
  5
43
330
8
100
AcDbSymbolTableRecord
100
AcDbViewportTableRecord
  2
*ACTIVE
 70
     0
 10
0.0
 20
0.0
 11
1.0
 21
1.0
 12
505.3812210517317
 22
257.5500453436709
 13
0.0
 23
0.0
 14
10.0
 24
10.0
 15
10.0
 25
10.0
 16
0.0
 26
0.0
 36
1.0
 17
0.0
 27
0.0
 37
0.0
 40
515.1000906873419
 41
1.962264150943396
 42
50.0
 43
0.0
 44
0.0
 50
0.0
 51
0.0
 71
     0
 72
   100
 73
     1
 74
     3
 75
     0
 76
     0
 77
     0
 78
     0
  0
ENDTAB
  0
TABLE
  2
LTYPE
  5
5
330
0
100
AcDbSymbolTable
 70
     1
  0
LTYPE
  5
14
330
5
100
AcDbSymbolTableRecord
100
AcDbLinetypeTableRecord
  2
BYBLOCK
 70
     0
  3

 72
    65
 73
     0
 40
0.0
  0
LTYPE
  5
15
330
5
100
AcDbSymbolTableRecord
100
AcDbLinetypeTableRecord
  2
BYLAYER
 70
     0
  3

 72
    65
 73
     0
 40
0.0
  0
LTYPE
  5
16
330
5
100
AcDbSymbolTableRecord
100
AcDbLinetypeTableRecord
  2
CONTINUOUS
 70
     0
  3
Solid line
 72
    65
 73
     0
 40
0.0
  0
ENDTAB
  0
TABLE
  2
LAYER
  5
2
330
0
100
AcDbSymbolTable
 70
     1
  0
LAYER
  5
10
330
2
100
AcDbSymbolTableRecord
100
AcDbLayerTableRecord
  2
0
 70
     0
 62
     7
  6
CONTINUOUS
  0
ENDTAB
  0
TABLE
  2
STYLE
  5
3
330
0
100
AcDbSymbolTable
 70
     1
  0
STYLE
  5
11
330
3
100
AcDbSymbolTableRecord
100
AcDbTextStyleTableRecord
  2
STANDARD
 70
     0
 40
0.0
 41
1.0
 50
0.0
 71
     0
 42
2.5
  3
txt
  4

  0
ENDTAB
  0
TABLE
  2
VIEW
  5
6
330
0
100
AcDbSymbolTable
 70
     0
  0
ENDTAB
  0
TABLE
  2
UCS
  5
7
330
0
100
AcDbSymbolTable
 70
     0
  0
ENDTAB
  0
TABLE
  2
APPID
  5
9
330
0
100
AcDbSymbolTable
 70
     1
  0
APPID
  5
12
330
9
100
AcDbSymbolTableRecord
100
AcDbRegAppTableRecord
  2
ACAD
 70
     0
  0
ENDTAB
  0
TABLE
  2
DIMSTYLE
  5
A
330
0
100
AcDbSymbolTable
 70
     1
  0
DIMSTYLE
105
27
330
A
100
AcDbSymbolTableRecord
100
AcDbDimStyleTableRecord
  2
ISO-25
 70
     0
  3

  4

  5

  6

  7

 40
1.0
 41
2.5
 42
0.625
 43
3.75
 44
1.25
 45
0.0
 46
0.0
 47
0.0
 48
0.0
140
2.5
141
2.5
142
0.0
143
0.03937007874016
144
1.0
145
0.0
146
1.0
147
0.625
 71
     0
 72
     0
 73
     0
 74
     0
 75
     0
 76
     0
 77
     1
 78
     8
170
     0
171
     3
172
     1
173
     0
174
     0
175
     0
176
     0
177
     0
178
     0
270
     2
271
     2
272
     2
273
     2
274
     3
340
11
275
     0
280
     0
281
     0
282
     0
283
     0
284
     8
285
     0
286
     0
287
     3
288
     0
  0
ENDTAB
  0
TABLE
  2
BLOCK_RECORD
  5
1
330
0
100
AcDbSymbolTable
 70
     1
  0
BLOCK_RECORD
  5
1F
102
{ACAD_XDICTIONARY
360
46
102
}
330
1
100
AcDbSymbolTableRecord
100
AcDbBlockTableRecord
  2
*MODEL_SPACE
  0
BLOCK_RECORD
  5
1B
102
{ACAD_XDICTIONARY
360
44
102
}
330
1
100
AcDbSymbolTableRecord
100
AcDbBlockTableRecord
  2
*PAPER_SPACE
  0
ENDTAB
  0
ENDSEC
  0
SECTION
  2
BLOCKS
  0
BLOCK
  5
20
330
1F
100
AcDbEntity
  8
0
100
AcDbBlockBegin
  2
*MODEL_SPACE
 70
     0
 10
0.0
 20
0.0
 30
0.0
  3
*MODEL_SPACE
  1

  0
ENDBLK
  5
21
330
1F
100
AcDbEntity
  8
0
100
AcDbBlockEnd
  0
BLOCK
  5
1C
330
1B
100
AcDbEntity
 67
     1
  8
0
100
AcDbBlockBegin
  2
*PAPER_SPACE
 70
     0
 10
0.0
 20
0.0
 30
0.0
  3
*PAPER_SPACE
  1

  0
ENDBLK
  5
1D
330
1B
100
AcDbEntity
 67
     1
  8
0
100
AcDbBlockEnd
  0
ENDSEC
  0
SECTION
  2
ENTITIES
  0
LINE
  5
100
330
1F
100
AcDbEntity
  8
0
  62
1
100
AcDbLine
 10
1121.893212
 20
780.376655
 30
0.000000
 11
1120.893242
 21
775.376721
 31
0.000000
  0
LINE
  5
101
330
1F
100
AcDbEntity
  8
0
  62
1
100
AcDbLine
 10
1120.893242
 20
775.376721
 30
0.000000
 11
1119.893244
 21
774.376723
 31
0.000000
  0
LINE
  5
102
330
1F
100
AcDbEntity
  8
0
  62
1
100
AcDbLine
 10
1119.893244
 20
774.376723
 30
0.000000
 11
1119.893244
 21
773.376725
 31
0.000000
  0
LINE
  5
103
330
1F
100
AcDbEntity
  8
0
  62
1
100
AcDbLine
 10
1119.893244
 20
773.376725
 30
0.000000
 11
1125.893204
 21
773.376725
 31
0.000000
  0
LINE
  5
104
330
1F
100
AcDbEntity
  8
0
  62
1
100
AcDbLine
 10
1125.893204
 20
773.376725
 30
0.000000
 11
1131.893220
 21
778.376715
 31
0.000000
  0
LINE
  5
105
330
1F
100
AcDbEntity
  8
0
  62
1
100
AcDbLine
 10
1131.893220
 20
778.376715
 30
0.000000
 11
1166.893235
 21
774.376723
 31
0.000000
  0
LINE
  5
106
330
1F
100
AcDbEntity
  8
0
  62
1
100
AcDbLine
 10
1166.893235
 20
774.376723
 30
0.000000
 11
1166.893235
 21
790.376719
 31
0.000000
  0
LINE
  5
107
330
1F
100
AcDbEntity
  8
0
  62
1
100
AcDbLine
 10
1166.893235
 20
790.376719
 30
0.000000
 11
1136.893238
 21
820.376623
 31
0.000000
  0
LINE
  5
108
330
1F
100
AcDbEntity
  8
0
  62
1
100
AcDbLine
 10
1136.893238
 20
820.376623
 30
0.000000
 11
1108.770979
 21
820.376679
 31
0.000000
  0
LINE
  5
109
330
1F
100
AcDbEntity
  8
0
  62
1
100
AcDbLine
 10
1108.770979
 20
820.376679
 30
0.000000
 11
1108.770979
 21
816.143346
 31
0.000000
  0
LINE
  5
110
330
1F
100
AcDbEntity
  8
0
  62
1
100
AcDbLine
 10
1108.770979
 20
816.143346
 30
0.000000
 11
1103.126535
 21
816.143346
 31
0.000000
  0
LINE
  5
111
330
1F
100
AcDbEntity
  8
0
  62
1
100
AcDbLine
 10
1103.126535
 20
816.143346
 30
0.000000
 11
1103.126535
 21
820.376679
 31
0.000000
  0
LINE
  5
112
330
1F
100
AcDbEntity
  8
0
  62
1
100
AcDbLine
 10
1103.126535
 20
820.376679
 30
0.000000
 11
1098.893202
 21
820.376679
 31
0.000000
  0
LINE
  5
113
330
1F
100
AcDbEntity
  8
0
  62
1
100
AcDbLine
 10
1098.893202
 20
820.376679
 30
0.000000
 11
1098.893202
 21
811.910012
 31
0.000000
  0
LINE
  5
114
330
1F
100
AcDbEntity
  8
0
  62
1
100
AcDbLine
 10
1098.893202
 20
811.910012
 30
0.000000
 11
1108.770979
 21
811.910012
 31
0.000000
  0
LINE
  5
115
330
1F
100
AcDbEntity
  8
0
  62
1
100
AcDbLine
 10
1108.770979
 20
811.910012
 30
0.000000
 11
1108.770979
 21
792.154457
 31
0.000000
  0
LINE
  5
116
330
1F
100
AcDbEntity
  8
0
  62
1
100
AcDbLine
 10
1108.770979
 20
792.154457
 30
0.000000
 11
1103.126535
 21
792.154457
 31
0.000000
  0
LINE
  5
117
330
1F
100
AcDbEntity
  8
0
  62
1
100
AcDbLine
 10
1103.126535
 20
792.154457
 30
0.000000
 11
1103.126535
 21
796.387790
 31
0.000000
  0
LINE
  5
118
330
1F
100
AcDbEntity
  8
0
  62
1
100
AcDbLine
 10
1103.126535
 20
796.387790
 30
0.000000
 11
1098.893202
 21
796.387790
 31
0.000000
  0
LINE
  5
119
330
1F
100
AcDbEntity
  8
0
  62
1
100
AcDbLine
 10
1098.893202
 20
796.387790
 30
0.000000
 11
1098.893202
 21
786.510012
 31
0.000000
  0
LINE
  5
120
330
1F
100
AcDbEntity
  8
0
  62
1
100
AcDbLine
 10
1098.893202
 20
786.510012
 30
0.000000
 11
1121.893212
 21
780.376655
 31
0.000000
  0
LINE
  5
121
330
1F
100
AcDbEntity
  8
0
  62
1
100
AcDbLine
 10
970.482090
 20
831.665568
 30
0.000000
 11
1094.659868
 21
831.665568
 31
0.000000
  0
LINE
  5
122
330
1F
100
AcDbEntity
  8
0
  62
1
100
AcDbLine
 10
1094.659868
 20
831.665568
 30
0.000000
 11
1094.659868
 21
786.510012
 31
0.000000
  0
LINE
  5
123
330
1F
100
AcDbEntity
  8
0
  62
1
100
AcDbLine
 10
1094.659868
 20
786.510012
 30
0.000000
 11
1089.015424
 21
786.510012
 31
0.000000
  0
LINE
  5
124
330
1F
100
AcDbEntity
  8
0
  62
1
100
AcDbLine
 10
1089.015424
 20
786.510012
 30
0.000000
 11
1089.015424
 21
792.154457
 31
0.000000
  0
LINE
  5
125
330
1F
100
AcDbEntity
  8
0
  62
1
100
AcDbLine
 10
1089.015424
 20
792.154457
 30
0.000000
 11
1083.370979
 21
792.154457
 31
0.000000
  0
LINE
  5
126
330
1F
100
AcDbEntity
  8
0
  62
1
100
AcDbLine
 10
1083.370979
 20
792.154457
 30
0.000000
 11
1083.370979
 21
786.510012
 31
0.000000
  0
LINE
  5
127
330
1F
100
AcDbEntity
  8
0
  62
1
100
AcDbLine
 10
1083.370979
 20
786.510012
 30
0.000000
 11
1077.726535
 21
786.510012
 31
0.000000
  0
LINE
  5
128
330
1F
100
AcDbEntity
  8
0
  62
1
100
AcDbLine
 10
1077.726535
 20
786.510012
 30
0.000000
 11
1074.904313
 21
794.976679
 31
0.000000
  0
LINE
  5
129
330
1F
100
AcDbEntity
  8
0
  62
1
100
AcDbLine
 10
1074.904313
 20
794.976679
 30
0.000000
 11
990.237646
 21
794.976679
 31
0.000000
  0
LINE
  5
130
330
1F
100
AcDbEntity
  8
0
  62
1
100
AcDbLine
 10
990.237646
 20
794.976679
 30
0.000000
 11
987.415424
 21
786.510012
 31
0.000000
  0
LINE
  5
131
330
1F
100
AcDbEntity
  8
0
  62
1
100
AcDbLine
 10
987.415424
 20
786.510012
 30
0.000000
 11
981.770979
 21
786.510012
 31
0.000000
  0
LINE
  5
132
330
1F
100
AcDbEntity
  8
0
  62
1
100
AcDbLine
 10
981.770979
 20
786.510012
 30
0.000000
 11
981.770979
 21
792.154457
 31
0.000000
  0
LINE
  5
133
330
1F
100
AcDbEntity
  8
0
  62
1
100
AcDbLine
 10
981.770979
 20
792.154457
 30
0.000000
 11
976.126535
 21
792.154457
 31
0.000000
  0
LINE
  5
134
330
1F
100
AcDbEntity
  8
0
  62
1
100
AcDbLine
 10
976.126535
 20
792.154457
 30
0.000000
 11
976.126535
 21
786.510012
 31
0.000000
  0
LINE
  5
135
330
1F
100
AcDbEntity
  8
0
  62
1
100
AcDbLine
 10
976.126535
 20
786.510012
 30
0.000000
 11
970.482090
 21
786.510012
 31
0.000000
  0
LINE
  5
136
330
1F
100
AcDbEntity
  8
0
  62
1
100
AcDbLine
 10
970.482090
 20
786.510012
 30
0.000000
 11
970.482090
 21
831.665568
 31
0.000000
  0
LINE
  5
137
330
1F
100
AcDbEntity
  8
0
  62
7
100
AcDbLine
 10
976.126535
 20
806.265571
 30
0.000000
 11
976.126535
 21
816.143365
 31
0.000000
  0
LINE
  5
138
330
1F
100
AcDbEntity
  8
0
  62
7
100
AcDbLine
 10
976.126535
 20
816.143365
 30
0.000000
 11
981.770979
 21
816.143365
 31
0.000000
  0
LINE
  5
139
330
1F
100
AcDbEntity
  8
0
  62
7
100
AcDbLine
 10
981.770979
 20
816.143365
 30
0.000000
 11
981.770979
 21
806.265571
 31
0.000000
  0
LINE
  5
140
330
1F
100
AcDbEntity
  8
0
  62
7
100
AcDbLine
 10
981.770979
 20
806.265571
 30
0.000000
 11
976.126535
 21
806.265571
 31
0.000000
  0
LINE
  5
141
330
1F
100
AcDbEntity
  8
0
  62
7
100
AcDbLine
 10
1083.370979
 20
806.265571
 30
0.000000
 11
1083.370979
 21
816.143365
 31
0.000000
  0
LINE
  5
142
330
1F
100
AcDbEntity
  8
0
  62
7
100
AcDbLine
 10
1083.370979
 20
816.143365
 30
0.000000
 11
1089.015396
 21
816.143365
 31
0.000000
  0
LINE
  5
143
330
1F
100
AcDbEntity
  8
0
  62
7
100
AcDbLine
 10
1089.015396
 20
816.143365
 30
0.000000
 11
1089.015396
 21
806.265571
 31
0.000000
  0
LINE
  5
144
330
1F
100
AcDbEntity
  8
0
  62
7
100
AcDbLine
 10
1089.015396
 20
806.265571
 30
0.000000
 11
1083.370979
 21
806.265571
 31
0.000000
  0
LINE
  5
145
330
1F
100
AcDbEntity
  8
0
  62
5
100
AcDbLine
 10
932.437688
 20
766.132239
 30
0.000000
 11
932.437688
 21
721.132238
 31
0.000000
  0
LINE
  5
146
330
1F
100
AcDbEntity
  8
0
  62
5
100
AcDbLine
 10
932.437688
 20
721.132238
 30
0.000000
 11
874.437691
 21
721.132238
 31
0.000000
  0
LINE
  5
147
330
1F
100
AcDbEntity
  8
0
  62
5
100
AcDbLine
 10
874.437691
 20
721.132238
 30
0.000000
 11
874.437691
 21
766.132239
 31
0.000000
  0
LINE
  5
148
330
1F
100
AcDbEntity
  8
0
  62
5
100
AcDbLine
 10
874.437691
 20
766.132239
 30
0.000000
 11
932.437688
 21
766.132239
 31
0.000000
  0
LINE
  5
149
330
1F
100
AcDbEntity
  8
0
  62
5
100
AcDbLine
 10
852.437679
 20
715.132225
 30
0.000000
 11
852.437679
 21
772.132235
 31
0.000000
  0
LINE
  5
150
330
1F
100
AcDbEntity
  8
0
  62
5
100
AcDbLine
 10
852.437679
 20
772.132235
 30
0.000000
 11
954.437701
 21
772.132235
 31
0.000000
  0
LINE
  5
151
330
1F
100
AcDbEntity
  8
0
  62
5
100
AcDbLine
 10
954.437701
 20
772.132235
 30
0.000000
 11
954.437701
 21
715.132225
 31
0.000000
  0
LINE
  5
152
330
1F
100
AcDbEntity
  8
0
  62
5
100
AcDbLine
 10
954.437701
 20
715.132225
 30
0.000000
 11
852.437679
 21
715.132225
 31
0.000000
  0
LINE
  5
153
330
1F
100
AcDbEntity
  8
0
  62
5
100
AcDbLine
 10
970.482090
 20
666.565571
 30
0.000000
 11
970.482090
 21
780.865571
 31
0.000000
  0
LINE
  5
154
330
1F
100
AcDbEntity
  8
0
  62
5
100
AcDbLine
 10
970.482090
 20
780.865571
 30
0.000000
 11
1094.659868
 21
780.865571
 31
0.000000
  0
LINE
  5
155
330
1F
100
AcDbEntity
  8
0
  62
5
100
AcDbLine
 10
1094.659868
 20
780.865571
 30
0.000000
 11
1094.659868
 21
666.565571
 31
0.000000
  0
LINE
  5
156
330
1F
100
AcDbEntity
  8
0
  62
5
100
AcDbLine
 10
1094.659868
 20
666.565571
 30
0.000000
 11
970.482090
 21
666.565571
 31
0.000000
  0
LINE
  5
157
330
1F
100
AcDbEntity
  8
0
  62
7
100
AcDbLine
 10
1012.659355
 20
772.865604
 30
0.000000
 11
1004.659568
 21
772.865604
 31
0.000000
  0
LINE
  5
158
330
1F
100
AcDbEntity
  8
0
  62
7
100
AcDbLine
 10
1004.659568
 20
772.865604
 30
0.000000
 11
1004.659568
 21
770.865241
 31
0.000000
  0
LINE
  5
159
330
1F
100
AcDbEntity
  8
0
  62
7
100
AcDbLine
 10
1004.659568
 20
770.865241
 30
0.000000
 11
996.659782
 21
770.865241
 31
0.000000
  0
LINE
  5
160
330
1F
100
AcDbEntity
  8
0
  62
7
100
AcDbLine
 10
996.659782
 20
770.865241
 30
0.000000
 11
996.659782
 21
768.865434
 31
0.000000
  0
LINE
  5
161
330
1F
100
AcDbEntity
  8
0
  62
7
100
AcDbLine
 10
996.659782
 20
768.865434
 30
0.000000
 11
994.659419
 21
768.865434
 31
0.000000
  0
LINE
  5
162
330
1F
100
AcDbEntity
  8
0
  62
7
100
AcDbLine
 10
994.659419
 20
768.865434
 30
0.000000
 11
994.659419
 21
755.865573
 31
0.000000
  0
LINE
  5
163
330
1F
100
AcDbEntity
  8
0
  62
7
100
AcDbLine
 10
994.659419
 20
755.865573
 30
0.000000
 11
996.659782
 21
755.865573
 31
0.000000
  0
LINE
  5
164
330
1F
100
AcDbEntity
  8
0
  62
7
100
AcDbLine
 10
996.659782
 20
755.865573
 30
0.000000
 11
996.659782
 21
720.865617
 31
0.000000
  0
LINE
  5
165
330
1F
100
AcDbEntity
  8
0
  62
7
100
AcDbLine
 10
996.659782
 20
720.865617
 30
0.000000
 11
1004.659568
 21
720.865617
 31
0.000000
  0
LINE
  5
166
330
1F
100
AcDbEntity
  8
0
  62
7
100
AcDbLine
 10
1004.659568
 20
720.865617
 30
0.000000
 11
1004.659568
 21
718.865254
 31
0.000000
  0
LINE
  5
167
330
1F
100
AcDbEntity
  8
0
  62
7
100
AcDbLine
 10
1004.659568
 20
718.865254
 30
0.000000
 11
1012.659355
 21
718.865254
 31
0.000000
  0
LINE
  5
168
330
1F
100
AcDbEntity
  8
0
  62
7
100
AcDbLine
 10
1012.659355
 20
718.865254
 30
0.000000
 11
1012.659355
 21
720.865617
 31
0.000000
  0
LINE
  5
169
330
1F
100
AcDbEntity
  8
0
  62
7
100
AcDbLine
 10
1012.659355
 20
720.865617
 30
0.000000
 11
1026.659666
 21
720.865617
 31
0.000000
  0
LINE
  5
170
330
1F
100
AcDbEntity
  8
0
  62
7
100
AcDbLine
 10
1026.659666
 20
720.865617
 30
0.000000
 11
1026.659666
 21
718.865254
 31
0.000000
  0
LINE
  5
171
330
1F
100
AcDbEntity
  8
0
  62
7
100
AcDbLine
 10
1026.659666
 20
718.865254
 30
0.000000
 11
1034.659452
 21
718.865254
 31
0.000000
  0
LINE
  5
172
330
1F
100
AcDbEntity
  8
0
  62
7
100
AcDbLine
 10
1034.659452
 20
718.865254
 30
0.000000
 11
1034.659452
 21
720.865617
 31
0.000000
  0
LINE
  5
173
330
1F
100
AcDbEntity
  8
0
  62
7
100
AcDbLine
 10
1034.659452
 20
720.865617
 30
0.000000
 11
1056.659577
 21
720.865617
 31
0.000000
  0
LINE
  5
174
330
1F
100
AcDbEntity
  8
0
  62
7
100
AcDbLine
 10
1056.659577
 20
720.865617
 30
0.000000
 11
1056.659577
 21
718.865254
 31
0.000000
  0
LINE
  5
175
330
1F
100
AcDbEntity
  8
0
  62
7
100
AcDbLine
 10
1056.659577
 20
718.865254
 30
0.000000
 11
1064.659364
 21
718.865254
 31
0.000000
  0
LINE
  5
176
330
1F
100
AcDbEntity
  8
0
  62
7
100
AcDbLine
 10
1064.659364
 20
718.865254
 30
0.000000
 11
1064.659364
 21
720.865617
 31
0.000000
  0
LINE
  5
177
330
1F
100
AcDbEntity
  8
0
  62
7
100
AcDbLine
 10
1064.659364
 20
720.865617
 30
0.000000
 11
1065.659813
 21
720.865617
 31
0.000000
  0
LINE
  5
178
330
1F
100
AcDbEntity
  8
0
  62
7
100
AcDbLine
 10
1065.659813
 20
720.865617
 30
0.000000
 11
1065.659813
 21
727.365534
 31
0.000000
  0
LINE
  5
179
330
1F
100
AcDbEntity
  8
0
  62
7
100
AcDbLine
 10
1065.659813
 20
727.365534
 30
0.000000
 11
1073.659600
 21
727.365534
 31
0.000000
  0
LINE
  5
180
330
1F
100
AcDbEntity
  8
0
  62
7
100
AcDbLine
 10
1073.659600
 20
727.365534
 30
0.000000
 11
1073.659600
 21
762.365503
 31
0.000000
  0
LINE
  5
181
330
1F
100
AcDbEntity
  8
0
  62
7
100
AcDbLine
 10
1073.659600
 20
762.365503
 30
0.000000
 11
1065.659813
 21
762.365503
 31
0.000000
  0
LINE
  5
182
330
1F
100
AcDbEntity
  8
0
  62
7
100
AcDbLine
 10
1065.659813
 20
762.365503
 30
0.000000
 11
1065.659813
 21
770.865241
 31
0.000000
  0
LINE
  5
183
330
1F
100
AcDbEntity
  8
0
  62
7
100
AcDbLine
 10
1065.659813
 20
770.865241
 30
0.000000
 11
1063.659450
 21
770.865241
 31
0.000000
  0
LINE
  5
184
330
1F
100
AcDbEntity
  8
0
  62
7
100
AcDbLine
 10
1063.659450
 20
770.865241
 30
0.000000
 11
1063.659450
 21
772.865604
 31
0.000000
  0
LINE
  5
185
330
1F
100
AcDbEntity
  8
0
  62
7
100
AcDbLine
 10
1063.659450
 20
772.865604
 30
0.000000
 11
1055.659664
 21
772.865604
 31
0.000000
  0
LINE
  5
186
330
1F
100
AcDbEntity
  8
0
  62
7
100
AcDbLine
 10
1055.659664
 20
772.865604
 30
0.000000
 11
1055.659664
 21
770.865241
 31
0.000000
  0
LINE
  5
187
330
1F
100
AcDbEntity
  8
0
  62
7
100
AcDbLine
 10
1055.659664
 20
770.865241
 30
0.000000
 11
1034.659452
 21
770.865241
 31
0.000000
  0
LINE
  5
188
330
1F
100
AcDbEntity
  8
0
  62
7
100
AcDbLine
 10
1034.659452
 20
770.865241
 30
0.000000
 11
1034.659452
 21
772.865604
 31
0.000000
  0
LINE
  5
189
330
1F
100
AcDbEntity
  8
0
  62
7
100
AcDbLine
 10
1034.659452
 20
772.865604
 30
0.000000
 11
1026.659666
 21
772.865604
 31
0.000000
  0
LINE
  5
190
330
1F
100
AcDbEntity
  8
0
  62
7
100
AcDbLine
 10
1026.659666
 20
772.865604
 30
0.000000
 11
1026.659666
 21
770.865241
 31
0.000000
  0
LINE
  5
191
330
1F
100
AcDbEntity
  8
0
  62
7
100
AcDbLine
 10
1026.659666
 20
770.865241
 30
0.000000
 11
1012.659355
 21
770.865241
 31
0.000000
  0
LINE
  5
192
330
1F
100
AcDbEntity
  8
0
  62
7
100
AcDbLine
 10
1012.659355
 20
770.865241
 30
0.000000
 11
1012.659355
 21
772.865604
 31
0.000000
  0
LINE
  5
193
330
1F
100
AcDbEntity
  8
0
  62
7
100
AcDbLine
 10
976.126535
 20
756.876682
 30
0.000000
 11
976.126535
 21
766.754460
 31
0.000000
  0
LINE
  5
194
330
1F
100
AcDbEntity
  8
0
  62
7
100
AcDbLine
 10
976.126535
 20
766.754460
 30
0.000000
 11
981.770979
 21
766.754460
 31
0.000000
  0
LINE
  5
195
330
1F
100
AcDbEntity
  8
0
  62
7
100
AcDbLine
 10
981.770979
 20
766.754460
 30
0.000000
 11
981.770979
 21
756.876682
 31
0.000000
  0
LINE
  5
196
330
1F
100
AcDbEntity
  8
0
  62
7
100
AcDbLine
 10
981.770979
 20
756.876682
 30
0.000000
 11
976.126535
 21
756.876682
 31
0.000000
  0
LINE
  5
197
330
1F
100
AcDbEntity
  8
0
  62
7
100
AcDbLine
 10
1083.370979
 20
756.876690
 30
0.000000
 11
1083.370979
 21
766.754460
 31
0.000000
  0
LINE
  5
198
330
1F
100
AcDbEntity
  8
0
  62
7
100
AcDbLine
 10
1083.370979
 20
766.754460
 30
0.000000
 11
1089.015424
 21
766.754460
 31
0.000000
  0
LINE
  5
199
330
1F
100
AcDbEntity
  8
0
  62
7
100
AcDbLine
 10
1089.015424
 20
766.754460
 30
0.000000
 11
1089.015424
 21
756.876690
 31
0.000000
  0
LINE
  5
200
330
1F
100
AcDbEntity
  8
0
  62
7
100
AcDbLine
 10
1089.015424
 20
756.876690
 30
0.000000
 11
1083.370979
 21
756.876690
 31
0.000000
  0
LINE
  5
201
330
1F
100
AcDbEntity
  8
0
  62
7
100
AcDbLine
 10
984.659834
 20
722.365549
 30
0.000000
 11
984.659834
 21
767.365550
 31
0.000000
  0
LINE
  5
202
330
1F
100
AcDbEntity
  8
0
  62
7
100
AcDbLine
 10
984.659834
 20
767.365550
 30
0.000000
 11
989.659824
 21
767.365550
 31
0.000000
  0
LINE
  5
203
330
1F
100
AcDbEntity
  8
0
  62
7
100
AcDbLine
 10
989.659824
 20
767.365550
 30
0.000000
 11
989.659824
 21
722.365549
 31
0.000000
  0
LINE
  5
204
330
1F
100
AcDbEntity
  8
0
  62
7
100
AcDbLine
 10
989.659824
 20
722.365549
 30
0.000000
 11
984.659834
 21
722.365549
 31
0.000000
  0
SPLINE
  5
205
330
1F
100
AcDbEntity
  8
0
 62
     7
100
AcDbSpline
210
0.000000
220
0.000000
230
1.0
 70
     8
 71
     3
 72
     8
 73
     4
 42
0.0000000001
 43
0.0000000001
 44
0.0000000001
 12
0.000000
 22
0.000000
 32
0.000000
 13
0.000000
 23
0.000000
 33
0.000000
 40
0.000000
 40
0.000000
 40
0.000000
 40
0.000000
 40
1.000000
 40
1.000000
 40
1.000000
 40
1.000000
 10
993.059868
 20
813.417265
 30
0.000000
 10
993.892308
 20
813.417263
 30
0.000000
 10
994.567132
 20
812.742438
 30
0.000000
 10
994.567132
 20
811.909998
 30
0.000000
  0
SPLINE
  5
206
330
1F
100
AcDbEntity
  8
0
 62
     7
100
AcDbSpline
210
0.000000
220
0.000000
230
1.0
 70
     8
 71
     3
 72
     8
 73
     4
 42
0.0000000001
 43
0.0000000001
 44
0.0000000001
 12
0.000000
 22
0.000000
 32
0.000000
 13
0.000000
 23
0.000000
 33
0.000000
 40
0.000000
 40
0.000000
 40
0.000000
 40
0.000000
 40
1.000000
 40
1.000000
 40
1.000000
 40
1.000000
 10
994.567132
 20
811.909998
 30
0.000000
 10
994.567134
 20
811.077558
 30
0.000000
 10
993.892309
 20
810.402730
 30
0.000000
 10
993.059868
 20
810.402728
 30
0.000000
  0
SPLINE
  5
207
330
1F
100
AcDbEntity
  8
0
 62
     7
100
AcDbSpline
210
0.000000
220
0.000000
230
1.0
 70
     8
 71
     3
 72
     8
 73
     4
 42
0.0000000001
 43
0.0000000001
 44
0.0000000001
 12
0.000000
 22
0.000000
 32
0.000000
 13
0.000000
 23
0.000000
 33
0.000000
 40
0.000000
 40
0.000000
 40
0.000000
 40
0.000000
 40
1.000000
 40
1.000000
 40
1.000000
 40
1.000000
 10
993.059868
 20
810.402728
 30
0.000000
 10
992.227428
 20
810.402730
 30
0.000000
 10
991.552603
 20
811.077558
 30
0.000000
 10
991.552604
 20
811.909998
 30
0.000000
  0
SPLINE
  5
208
330
1F
100
AcDbEntity
  8
0
 62
     7
100
AcDbSpline
210
0.000000
220
0.000000
230
1.0
 70
     8
 71
     3
 72
     8
 73
     4
 42
0.0000000001
 43
0.0000000001
 44
0.0000000001
 12
0.000000
 22
0.000000
 32
0.000000
 13
0.000000
 23
0.000000
 33
0.000000
 40
0.000000
 40
0.000000
 40
0.000000
 40
0.000000
 40
1.000000
 40
1.000000
 40
1.000000
 40
1.000000
 10
991.552604
 20
811.909998
 30
0.000000
 10
991.552604
 20
812.742438
 30
0.000000
 10
992.227429
 20
813.417263
 30
0.000000
 10
993.059868
 20
813.417265
 30
0.000000
  0
SPLINE
  5
209
330
1F
100
AcDbEntity
  8
0
 62
     7
100
AcDbSpline
210
0.000000
220
0.000000
230
1.0
 70
     8
 71
     3
 72
     8
 73
     4
 42
0.0000000001
 43
0.0000000001
 44
0.0000000001
 12
0.000000
 22
0.000000
 32
0.000000
 13
0.000000
 23
0.000000
 33
0.000000
 40
0.000000
 40
0.000000
 40
0.000000
 40
0.000000
 40
1.000000
 40
1.000000
 40
1.000000
 40
1.000000
 10
1072.082090
 20
813.417265
 30
0.000000
 10
1072.914530
 20
813.417263
 30
0.000000
 10
1073.589354
 20
812.742438
 30
0.000000
 10
1073.589355
 20
811.909998
 30
0.000000
  0
SPLINE
  5
210
330
1F
100
AcDbEntity
  8
0
 62
     7
100
AcDbSpline
210
0.000000
220
0.000000
230
1.0
 70
     8
 71
     3
 72
     8
 73
     4
 42
0.0000000001
 43
0.0000000001
 44
0.0000000001
 12
0.000000
 22
0.000000
 32
0.000000
 13
0.000000
 23
0.000000
 33
0.000000
 40
0.000000
 40
0.000000
 40
0.000000
 40
0.000000
 40
1.000000
 40
1.000000
 40
1.000000
 40
1.000000
 10
1073.589355
 20
811.909998
 30
0.000000
 10
1073.589356
 20
811.077558
 30
0.000000
 10
1072.914531
 20
810.402730
 30
0.000000
 10
1072.082090
 20
810.402728
 30
0.000000
  0
SPLINE
  5
211
330
1F
100
AcDbEntity
  8
0
 62
     7
100
AcDbSpline
210
0.000000
220
0.000000
230
1.0
 70
     8
 71
     3
 72
     8
 73
     4
 42
0.0000000001
 43
0.0000000001
 44
0.0000000001
 12
0.000000
 22
0.000000
 32
0.000000
 13
0.000000
 23
0.000000
 33
0.000000
 40
0.000000
 40
0.000000
 40
0.000000
 40
0.000000
 40
1.000000
 40
1.000000
 40
1.000000
 40
1.000000
 10
1072.082090
 20
810.402728
 30
0.000000
 10
1071.249650
 20
810.402730
 30
0.000000
 10
1070.574825
 20
811.077558
 30
0.000000
 10
1070.574826
 20
811.909998
 30
0.000000
  0
SPLINE
  5
212
330
1F
100
AcDbEntity
  8
0
 62
     7
100
AcDbSpline
210
0.000000
220
0.000000
230
1.0
 70
     8
 71
     3
 72
     8
 73
     4
 42
0.0000000001
 43
0.0000000001
 44
0.0000000001
 12
0.000000
 22
0.000000
 32
0.000000
 13
0.000000
 23
0.000000
 33
0.000000
 40
0.000000
 40
0.000000
 40
0.000000
 40
0.000000
 40
1.000000
 40
1.000000
 40
1.000000
 40
1.000000
 10
1070.574826
 20
811.909998
 30
0.000000
 10
1070.574827
 20
812.742438
 30
0.000000
 10
1071.249651
 20
813.417263
 30
0.000000
 10
1072.082090
 20
813.417265
 30
0.000000
  0
LINE
  5
213
330
1F
100
AcDbEntity
  8
0
  62
3
100
AcDbLine
 10
1083.370979
 20
837.310021
 30
0.000000
 11
1083.370979
 21
847.187790
 31
0.000000
  0
LINE
  5
214
330
1F
100
AcDbEntity
  8
0
  62
3
100
AcDbLine
 10
1083.370979
 20
847.187790
 30
0.000000
 11
1089.015424
 21
847.187790
 31
0.000000
  0
LINE
  5
215
330
1F
100
AcDbEntity
  8
0
  62
3
100
AcDbLine
 10
1089.015424
 20
847.187790
 30
0.000000
 11
1089.015424
 21
862.710012
 31
0.000000
  0
LINE
  5
216
330
1F
100
AcDbEntity
  8
0
  62
3
100
AcDbLine
 10
1089.015424
 20
862.710012
 30
0.000000
 11
1083.370979
 21
862.710012
 31
0.000000
  0
LINE
  5
217
330
1F
100
AcDbEntity
  8
0
  62
3
100
AcDbLine
 10
1083.370979
 20
862.710012
 30
0.000000
 11
1083.370979
 21
871.176679
 31
0.000000
  0
LINE
  5
218
330
1F
100
AcDbEntity
  8
0
  62
3
100
AcDbLine
 10
1083.370979
 20
871.176679
 30
0.000000
 11
1089.015424
 21
871.176679
 31
0.000000
  0
LINE
  5
219
330
1F
100
AcDbEntity
  8
0
  62
3
100
AcDbLine
 10
1089.015424
 20
871.176679
 30
0.000000
 11
1094.659868
 21
876.465580
 31
0.000000
  0
LINE
  5
220
330
1F
100
AcDbEntity
  8
0
  62
3
100
AcDbLine
 10
1094.659868
 20
876.465580
 30
0.000000
 11
1094.659868
 21
882.465568
 31
0.000000
  0
LINE
  5
221
330
1F
100
AcDbEntity
  8
0
  62
3
100
AcDbLine
 10
1094.659868
 20
882.465568
 30
0.000000
 11
970.482090
 21
882.465568
 31
0.000000
  0
LINE
  5
222
330
1F
100
AcDbEntity
  8
0
  62
3
100
AcDbLine
 10
970.482090
 20
882.465568
 30
0.000000
 11
970.482090
 21
876.821123
 31
0.000000
  0
LINE
  5
223
330
1F
100
AcDbEntity
  8
0
  62
3
100
AcDbLine
 10
970.482090
 20
876.821123
 30
0.000000
 11
976.126535
 21
871.176679
 31
0.000000
  0
LINE
  5
224
330
1F
100
AcDbEntity
  8
0
  62
3
100
AcDbLine
 10
976.126535
 20
871.176679
 30
0.000000
 11
981.770979
 21
871.176679
 31
0.000000
  0
LINE
  5
225
330
1F
100
AcDbEntity
  8
0
  62
3
100
AcDbLine
 10
981.770979
 20
871.176679
 30
0.000000
 11
981.770979
 21
862.710012
 31
0.000000
  0
LINE
  5
226
330
1F
100
AcDbEntity
  8
0
  62
3
100
AcDbLine
 10
981.770979
 20
862.710012
 30
0.000000
 11
976.126535
 21
862.710012
 31
0.000000
  0
LINE
  5
227
330
1F
100
AcDbEntity
  8
0
  62
3
100
AcDbLine
 10
976.126535
 20
862.710012
 30
0.000000
 11
976.126535
 21
847.187790
 31
0.000000
  0
LINE
  5
228
330
1F
100
AcDbEntity
  8
0
  62
3
100
AcDbLine
 10
976.126535
 20
847.187790
 30
0.000000
 11
981.770979
 21
847.187790
 31
0.000000
  0
LINE
  5
229
330
1F
100
AcDbEntity
  8
0
  62
3
100
AcDbLine
 10
981.770979
 20
847.187790
 30
0.000000
 11
981.770979
 21
837.310021
 31
0.000000
  0
LINE
  5
230
330
1F
100
AcDbEntity
  8
0
  62
3
100
AcDbLine
 10
981.770979
 20
837.310021
 30
0.000000
 11
987.415424
 21
837.310021
 31
0.000000
  0
LINE
  5
231
330
1F
100
AcDbEntity
  8
0
  62
3
100
AcDbLine
 10
987.415424
 20
837.310021
 30
0.000000
 11
990.237646
 21
845.776687
 31
0.000000
  0
LINE
  5
232
330
1F
100
AcDbEntity
  8
0
  62
3
100
AcDbLine
 10
990.237646
 20
845.776687
 30
0.000000
 11
1074.904313
 21
845.776687
 31
0.000000
  0
LINE
  5
233
330
1F
100
AcDbEntity
  8
0
  62
3
100
AcDbLine
 10
1074.904313
 20
845.776687
 30
0.000000
 11
1077.726535
 21
837.310021
 31
0.000000
  0
LINE
  5
234
330
1F
100
AcDbEntity
  8
0
  62
3
100
AcDbLine
 10
1077.726535
 20
837.310021
 30
0.000000
 11
1083.370979
 21
837.310021
 31
0.000000
  0
SPLINE
  5
235
330
1F
100
AcDbEntity
  8
0
 62
     7
100
AcDbSpline
210
0.000000
220
0.000000
230
1.0
 70
     8
 71
     3
 72
     8
 73
     4
 42
0.0000000001
 43
0.0000000001
 44
0.0000000001
 12
0.000000
 22
0.000000
 32
0.000000
 13
0.000000
 23
0.000000
 33
0.000000
 40
0.000000
 40
0.000000
 40
0.000000
 40
0.000000
 40
1.000000
 40
1.000000
 40
1.000000
 40
1.000000
 10
993.059868
 20
864.217282
 30
0.000000
 10
993.892308
 20
864.217280
 30
0.000000
 10
994.567132
 20
863.542455
 30
0.000000
 10
994.567132
 20
862.710015
 30
0.000000
  0
SPLINE
  5
236
330
1F
100
AcDbEntity
  8
0
 62
     7
100
AcDbSpline
210
0.000000
220
0.000000
230
1.0
 70
     8
 71
     3
 72
     8
 73
     4
 42
0.0000000001
 43
0.0000000001
 44
0.0000000001
 12
0.000000
 22
0.000000
 32
0.000000
 13
0.000000
 23
0.000000
 33
0.000000
 40
0.000000
 40
0.000000
 40
0.000000
 40
0.000000
 40
1.000000
 40
1.000000
 40
1.000000
 40
1.000000
 10
994.567132
 20
862.710015
 30
0.000000
 10
994.567134
 20
861.877575
 30
0.000000
 10
993.892309
 20
861.202747
 30
0.000000
 10
993.059868
 20
861.202745
 30
0.000000
  0
SPLINE
  5
237
330
1F
100
AcDbEntity
  8
0
 62
     7
100
AcDbSpline
210
0.000000
220
0.000000
230
1.0
 70
     8
 71
     3
 72
     8
 73
     4
 42
0.0000000001
 43
0.0000000001
 44
0.0000000001
 12
0.000000
 22
0.000000
 32
0.000000
 13
0.000000
 23
0.000000
 33
0.000000
 40
0.000000
 40
0.000000
 40
0.000000
 40
0.000000
 40
1.000000
 40
1.000000
 40
1.000000
 40
1.000000
 10
993.059868
 20
861.202745
 30
0.000000
 10
992.227428
 20
861.202747
 30
0.000000
 10
991.552603
 20
861.877575
 30
0.000000
 10
991.552604
 20
862.710015
 30
0.000000
  0
SPLINE
  5
238
330
1F
100
AcDbEntity
  8
0
 62
     7
100
AcDbSpline
210
0.000000
220
0.000000
230
1.0
 70
     8
 71
     3
 72
     8
 73
     4
 42
0.0000000001
 43
0.0000000001
 44
0.0000000001
 12
0.000000
 22
0.000000
 32
0.000000
 13
0.000000
 23
0.000000
 33
0.000000
 40
0.000000
 40
0.000000
 40
0.000000
 40
0.000000
 40
1.000000
 40
1.000000
 40
1.000000
 40
1.000000
 10
991.552604
 20
862.710015
 30
0.000000
 10
991.552604
 20
863.542455
 30
0.000000
 10
992.227429
 20
864.217280
 30
0.000000
 10
993.059868
 20
864.217282
 30
0.000000
  0
SPLINE
  5
239
330
1F
100
AcDbEntity
  8
0
 62
     7
100
AcDbSpline
210
0.000000
220
0.000000
230
1.0
 70
     8
 71
     3
 72
     8
 73
     4
 42
0.0000000001
 43
0.0000000001
 44
0.0000000001
 12
0.000000
 22
0.000000
 32
0.000000
 13
0.000000
 23
0.000000
 33
0.000000
 40
0.000000
 40
0.000000
 40
0.000000
 40
0.000000
 40
1.000000
 40
1.000000
 40
1.000000
 40
1.000000
 10
1072.082090
 20
864.217282
 30
0.000000
 10
1072.914530
 20
864.217280
 30
0.000000
 10
1073.589354
 20
863.542455
 30
0.000000
 10
1073.589355
 20
862.710015
 30
0.000000
  0
SPLINE
  5
240
330
1F
100
AcDbEntity
  8
0
 62
     7
100
AcDbSpline
210
0.000000
220
0.000000
230
1.0
 70
     8
 71
     3
 72
     8
 73
     4
 42
0.0000000001
 43
0.0000000001
 44
0.0000000001
 12
0.000000
 22
0.000000
 32
0.000000
 13
0.000000
 23
0.000000
 33
0.000000
 40
0.000000
 40
0.000000
 40
0.000000
 40
0.000000
 40
1.000000
 40
1.000000
 40
1.000000
 40
1.000000
 10
1073.589355
 20
862.710015
 30
0.000000
 10
1073.589356
 20
861.877575
 30
0.000000
 10
1072.914531
 20
861.202747
 30
0.000000
 10
1072.082090
 20
861.202745
 30
0.000000
  0
SPLINE
  5
241
330
1F
100
AcDbEntity
  8
0
 62
     7
100
AcDbSpline
210
0.000000
220
0.000000
230
1.0
 70
     8
 71
     3
 72
     8
 73
     4
 42
0.0000000001
 43
0.0000000001
 44
0.0000000001
 12
0.000000
 22
0.000000
 32
0.000000
 13
0.000000
 23
0.000000
 33
0.000000
 40
0.000000
 40
0.000000
 40
0.000000
 40
0.000000
 40
1.000000
 40
1.000000
 40
1.000000
 40
1.000000
 10
1072.082090
 20
861.202745
 30
0.000000
 10
1071.249650
 20
861.202747
 30
0.000000
 10
1070.574825
 20
861.877575
 30
0.000000
 10
1070.574826
 20
862.710015
 30
0.000000
  0
SPLINE
  5
242
330
1F
100
AcDbEntity
  8
0
 62
     7
100
AcDbSpline
210
0.000000
220
0.000000
230
1.0
 70
     8
 71
     3
 72
     8
 73
     4
 42
0.0000000001
 43
0.0000000001
 44
0.0000000001
 12
0.000000
 22
0.000000
 32
0.000000
 13
0.000000
 23
0.000000
 33
0.000000
 40
0.000000
 40
0.000000
 40
0.000000
 40
0.000000
 40
1.000000
 40
1.000000
 40
1.000000
 40
1.000000
 10
1070.574826
 20
862.710015
 30
0.000000
 10
1070.574827
 20
863.542455
 30
0.000000
 10
1071.249651
 20
864.217280
 30
0.000000
 10
1072.082090
 20
864.217282
 30
0.000000
 0
ENDSEC
  0
SECTION
  2
OBJECTS
  0
DICTIONARY
  5
C
330
0
100
AcDbDictionary
  3
ACAD_GROUP
350
D
  3
ACAD_LAYOUT
350
1A
  3
ACAD_MLINESTYLE
350
17
  3
ACAD_PLOTSETTINGS
350
19
1001
ACAD
1000
TREAT_AS_HARD
1070
     0
  0
DICTIONARY
  5
46
330
1F
100
AcDbDictionary
  3
ACAD_LAYOUTSELFREF
350
47
  0
DICTIONARY
  5
44
330
1B
100
AcDbDictionary
  3
ACAD_LAYOUTSELFREF
350
45
  0
DICTIONARY
  5
D
102
{ACAD_REACTORS
330
C
102
}
330
C
100
AcDbDictionary
1001
ACAD
1000
TREAT_AS_HARD
1070
     0
  0
DICTIONARY
  5
1A
102
{ACAD_REACTORS
330
C
102
}
330
C
100
AcDbDictionary
1001
ACAD
1000
TREAT_AS_HARD
1070
     0
  0
DICTIONARY
  5
17
102
{ACAD_REACTORS
330
C
102
}
330
C
100
AcDbDictionary
  3
STANDARD
350
18
1001
ACAD
1000
TREAT_AS_HARD
1070
     0
  0
DICTIONARY
  5
19
102
{ACAD_REACTORS
330
C
102
}
330
C
100
AcDbDictionary
1001
ACAD
1000
TREAT_AS_HARD
1070
     0
  0
XRECORD
  5
47
102
{ACAD_REACTORS
330
46
102
}
330
46
100
AcDbXrecord
340
1F
  0
XRECORD
  5
45
102
{ACAD_REACTORS
330
44
102
}
330
44
100
AcDbXrecord
340
1B
  0
MLINESTYLE
  5
18
102
{ACAD_REACTORS
330
17
102
}
330
17
100
AcDbMlineStyle
  2
STANDARD
 70
     0
  3

 62
   256
 51
90.0
 52
90.0
 71
     2
 49
0.5
 62
   256
  6
BYLAYER
 49
-0.5
 62
   256
  6
BYLAYER
  0
ENDSEC
  0
EOF
